<?xml version="1.0" encoding="utf-8"?>
<!-- Generator: Adobe Illustrator 19.0.0, SVG Export Plug-In . SVG Version: 6.00 Build 0)  -->
<svg version="1.0" id="Layer_1" xmlns="http://www.w3.org/2000/svg" xmlns:xlink="http://www.w3.org/1999/xlink" x="0px" y="0px"
	 viewBox="0 0 309 307.5" style="enable-background:new 0 0 309 307.5;" xml:space="preserve">
<style type="text/css">
	.st0{fill:#F9D4BC;}
	.st1{fill:#3466AF;}
	.st2{fill:#4071B7;}
	.st3{fill:#3E77BC;}
	.st4{fill:#2962AD;}
	.st5{fill:#F9CCB0;}
	.st6{fill:#F6F6F6;}
	.st7{fill:#E9C3B7;}
	.st8{fill:#C69C74;}
	.st9{fill:#DDAE84;}
	.st10{fill:#333333;}
	.st11{fill:#2A4B9B;}
	.st12{fill:#42B071;}
	.st13{fill:#31A05F;}
	.st14{fill:#244789;}
	.st15{fill:#E4C3BB;}
	.st16{fill:#3C3C3B;}
	.st17{fill:#F9B753;}
	.st18{fill:#7F8080;}
	.st19{fill:#BE1622;}
	.st20{fill:#FFFFFF;}
</style>
<g id="XMLID_63_">
	<path id="XMLID_4502_" d="M262.4,254.5c-1.3,5.3-2.7,10.4-4.9,13.7c0.5,5.3,11.8,1.6,13.2-9c0,0,0.2-0.6,0.8-0.4s3.1-3.3,2.8-4.3
		c-0.3-0.9-3.8-7.1-3.8-7.1L262.4,254.5z"/>
	<path id="XMLID_4503_" d="M246.1,262.4c-3.8,4.7-7.5,8.7-11.1,11.1c2.2,6.2,12.8,3.9,15.7-1.4c0,0,0.5-1.6,0.8-1.1s0.6,1.6,0.6,1.6
		c1.6-0.4,2.9-1.3,3.9-2.8l0.1-6.3l-7.1-4.3L246.1,262.4z"/>
	<path id="XMLID_4508_" class="st0" d="M219.8,110.4c0,4.5-3.1,20.3-3.9,25.6h7.2l4.7-26.1l-5.4-4.2L219.8,110.4z"/>
	<path id="XMLID_558_" class="st0" d="M231.8,105.9c0,0-0.7,18.4-1.8,22.7c-1.1,4.5-3.8,6.7-9.6,9c-6.3,2.5-24.4,6.6-23.8,5.4
		c-3,4.1-8.6,3.4-15.5,0.3l10.8-4.1l-2.7-0.9c-1.7-1.9-1.5-3.2,0.7-3.8l6.7,2.1c8.5-4.6,16.4-8.7,22.2-10.7l0.4-15.4l6.7-7.7
		L231.8,105.9z"/>
	<path id="XMLID_4510_" class="st1" d="M257.7,224c5.3,7.6,9.7,15.6,13,24.1c-2.4,2.9-4.9,5.5-8,6.4l-5.6-4.5l-5.2-21.4L257.7,224z"
		/>
	<path id="XMLID_4509_" class="st2" d="M265.8,173.9c-1.1,14.1-4.3,28.3-9.7,42.4c3,9.7,3.3,25,0,47.3c-2.6,1.3-9.3,1.2-10-1.1
		c-1.7-11.2-3.8-21.5-6.8-29.8l-16.1-45.5l9.9-17.5l23.6,0.8L265.8,173.9z"/>
	<path id="XMLID_4507_" class="st3" d="M268.8,91.5c4.1,1.8,7.7,9.9,10.8,24.1c-2.4,5.3-6.5,9.2-14.1,10.3l-13.2-12.5l8.6-21.9
		l6-0.8L268.8,91.5z"/>
	<path id="XMLID_4506_" class="st4" d="M237.2,76.6c-8.5,0.1-16.3,1.5-17.7,13.6v20.2h2l-1.1,56.2l38.2-5.5l-3.1-9.3
		c5.1-4.3,8.4-6.9,12.4-9.9l0.5-6.9l-1.3-9.3c-4.2-11-8.7-21.1-5.2-28c2.2-4.1,4.5-6.5,6.9-6.2c-4.1-4.6-8.7-8.5-14.3-10.9
		L237.2,76.6z"/>
	<path id="XMLID_4505_" class="st1" d="M266.7,155.8l0,17.7c-6.1,2.9-15.6,2.9-30.7-1.6c0,0-2.1,29.7-1.1,38.1c1,8.4,4.2,22,4.2,22
		l-20.6-19.9c-7.9-7.9-1.1-26.9,1.8-45.5L266.7,155.8z"/>
	<path id="XMLID_4504_" class="st0" d="M278.3,118c0,0,2.8,18.2,2.6,22.7c-0.2,4.6-2.5,7.5-7.6,11.2c-5.6,4-22.6,12.4-22.2,11.1
		c-2.2,4.7-7.7,5.4-15,4.1l9.7-6.6l-2.8-0.2c-2-1.4-2.1-2.7,0-3.9l6.9,0.4c7.4-6.6,14.4-12.5,19.7-15.9l-2.5-15.1
		C271.2,124.8,274.9,122.2,278.3,118L278.3,118z"/>
	<path id="XMLID_4501_" class="st5" d="M234.9,55.7c-2.2,4.4-0.9,19.4,4.3,23.3c-2,5.9-2.6,11.9-1.8,18.1
		c4.5-1.7,10.3-7.6,17.1-16.5c-1.2-2.4-1.7-4.9-1.3-7.4l3.1-4.5l2.2-11.7h-8.3l-2-4.7l-6.2,1.9L234.9,55.7z"/>
	<path id="XMLID_4499_" class="st3" d="M228.1,77.9c0,0-3.9,0-5.7,9.3s-1.4,20.2-1.4,20.2l-0.4,1.4l-1.1,1.8l-0.3-20.2
		C220.1,83.7,222.9,79.3,228.1,77.9z"/>
	<g id="XMLID_85_">
		<path id="XMLID_101_" class="st6" d="M233.9,64.1c3.6,1,7.4,0.8,11.3,0c0,0-1,9.6,0.7,9.5c1.7-0.1,5.9-7.4,5.9-7.4L253,67
			c-1.2,3.3-2.5,6.7-8,11C238.5,81.4,234.8,76.8,233.9,64.1z"/>
		<polygon id="XMLID_98_" class="st6" points="245.2,64.1 251.8,60.7 251.8,62.4 245.2,66 		"/>
	</g>
	<path id="XMLID_4500_" d="M248.3,54.5c-5.2,3.6-10.5,3.4-13.4,1.2c-3.3-2.6-3.5-7.8,3.3-12.8c18.6-6.9,23.6,0.6,21.8,15.3
		c-1,6.6-3.1,12-7.4,15.5c10-13.3-1.3-20.4,0.2-6c0,2.9-1.9-0.6-5.2-8.7C247.4,57,249.3,54.8,248.3,54.5z"/>
	<path id="XMLID_579_" class="st7" d="M86.8,88.9c0,0,5.4,17.5,7.6,21.5c2.2,4.1,5.5,5.7,11.8,6.7c6.8,1.1,25.9,1.2,25,0.2
		c4,3.3,9.4,1.5,15.4-2.9l-11.7-1.7l2.5-1.4c1.2-2.2,0.7-3.4-1.7-3.5l-6.1,3.4c-9.6-2.7-18.5-4.9-24.8-5.6l-4.4-14.7
		C96.2,91.9,91.7,91.2,86.8,88.9L86.8,88.9z"/>
	<polygon id="XMLID_646_" class="st8" points="92,74.1 89.6,78.1 87.1,82 80.2,76.4 83.7,71.8 93.4,69 	"/>
	<path id="XMLID_586_" class="st9" d="M104.9,58.5C108,73.4,93,84,89.5,71.9L85,53.8l14.4-5.3L104.9,58.5z"/>
	<path id="XMLID_576_" class="st10" d="M105.6,52.8c1.7-0.7,3.5-0.9,5.2-0.7c-4.3,8.2-10.9,9.4-19.3,5.4
		C95.5,54.3,100.1,52.1,105.6,52.8z"/>
	<path id="XMLID_592_" class="st11" d="M52.3,150c-2.7,18.7-2.2,35.9,1.8,51.4c-7.5,14.5-12.5,42.5-18.6,63.4l10.9,5.1l21.5-48.3
		c5.8-8.4,8.5-19.3,10.3-31.1l8.5-37.8l-32.6-5.2L52.3,150z"/>
	<path id="XMLID_585_" class="st12" d="M81,74.8c-13.2-1.3-19,16.1-21.7,41.7l1.2-0.3l16.1-4.1c-20.2-26.1,20.5-5.8,20.5-5.8
		c-0.8-12.8-3.2-21.9-7.5-26.4C89.2,90.5,69.8,79.8,81,74.8z"/>
	<path id="XMLID_584_" class="st13" d="M91.7,82.8c2.4,5,3.9,17.1,5,23.6l5.9-13.1C98.3,86.8,94.2,81.4,91.7,82.8z"/>
	<path id="XMLID_582_" class="st8" d="M80.4,74.7c-11.2,4.7,8.4,15.8,9.1,5.2L80.4,74.7z"/>
	<path id="XMLID_662_" class="st14" d="M77.1,193.3c0,0,7.2,35.7,8.8,45.2c1.6,9.5,4.7,32.2,4.7,32.2h12.1l-1-38.5
		c1.1-11.7-4.2-45.8-9.7-80.9l-6.3,1.6L77.1,193.3z"/>
	<polygon id="XMLID_661_" class="st15" points="37.8,265.8 36.8,268.6 45,270.7 45,269.2 	"/>
	<polygon id="XMLID_663_" class="st15" points="94.2,270.7 93.2,273.7 100.9,273.7 100.9,270.7 	"/>
	<path id="XMLID_664_" class="st16" d="M92.3,273.7h-1.3v4.3c-0.6,2.4,1.2,2.8,3.6,2.2l16.5,0.7c2.6-0.5,1.9-1.7,0-3
		c-3.3-0.7-6.7-2.2-10.3-4.1H92.3z"/>
	<path id="XMLID_670_" class="st16" d="M45,270.7c0,0,5.6,6.3,6.6,6.8c5,2.5,3.8,4.9-1.2,2.6l-14.9-5c-2-0.9-1.2-3.3,1.3-6.6
		L45,270.7z"/>
	<path id="XMLID_654_" class="st12" d="M54.7,138.4c-2.9,6.5-5.9,13-2.4,11.6l5.2,0.2L54.7,138.4z"/>
	<path id="XMLID_86_" class="st12" d="M59.3,116.5l-4.6,21.9l2.8,11.8l35.4,6.4c3.4-17.4,5.4-34.4,4.1-50.3L73.7,92.4L59.3,116.5z"
		/>
	<path id="XMLID_575_" class="st7" d="M77.1,110.3c0,0,5.4,17.5,7.6,21.5c2.2,4.1,5.5,5.7,11.8,6.7c6.8,1.1,25.9,1.2,25,0.2
		c4,3.3,9.4,1.5,15.4-2.9l-11.7-1.7l2.5-1.4c1.2-2.2,0.7-3.4-1.7-3.5l-6.1,3.4c-9.6-2.7-18.5-4.9-24.8-5.6l-4.4-14.7
		C86.6,113.3,82.1,112.6,77.1,110.3L77.1,110.3z"/>
	<path id="XMLID_577_" class="st13" d="M76.8,117.4c-17.7-24.3,10.3-43.6,16.5-4.7C89.2,115.9,83.7,117.8,76.8,117.4z"/>
	<g id="XMLID_83_">
		<path id="XMLID_81_" class="st6" d="M104.2,68.3c-3.1-0.3-6-1.3-9-2.8c0,0-2.5,8.1-3.8,7.6c-1.3-0.5-1.8-7.8-1.8-7.8l-1.1,0.2
			c0.3,2.5-0.4,6.1,3.1,10.3C96,79.6,100.9,76.3,104.2,68.3z"/>
		<polygon id="XMLID_82_" class="st6" points="95.3,65.4 90.7,61.6 90.4,62.7 94.9,66.7 		"/>
	</g>
	<path id="XMLID_583_" class="st11" d="M91.4,57.5c4.7-3.7,9.4-5.3,14.1-4.7c0-15.1-22.4-20.8-29-7C71,55.5,72.6,75,89.5,71.9
		L91.4,57.5z"/>
	<polygon id="XMLID_533_" class="st17" points="132.2,100.2 184.6,98.1 191.1,132.9 191.1,141.1 181.8,148.6 141.1,149.7 
		130.5,141.1 	"/>
	<polygon id="XMLID_532_" class="st18" points="130.5,141.3 141.1,148.7 140.5,155.8 129.9,147.2 	"/>
	<polygon id="XMLID_530_" class="st18" points="181.1,147.3 191.1,139 191.7,146.5 180.6,153.9 	"/>
	<polygon id="XMLID_528_" class="st18" points="141,148.7 181.1,147.3 180.6,153.9 140.4,155.8 	"/>
	
		<image style="overflow:visible;" width="260" height="280" id="XMLID_80_" xlink:href="../Downloads/Untitled-removebg-preview (4).png"  transform="matrix(0.2083 0 0 0.2083 133.6916 92.4219)">
	</image>
	<g id="XMLID_126_">
		<path id="XMLID_87_" class="st19" d="M140.4,113.6l-0.2-8.6l6.7-0.2l0,1.5l-4.7,0.1l0.1,2l4.1-0.1l0,1.5l-4.1,0.1l0.1,3.6
			L140.4,113.6z"/>
		<path id="XMLID_89_" class="st19" d="M148.1,109.1c0-0.9,0.1-1.6,0.4-2.2c0.2-0.4,0.5-0.8,0.9-1.2c0.4-0.4,0.8-0.6,1.2-0.8
			c0.6-0.2,1.3-0.4,2.1-0.4c1.4,0,2.6,0.3,3.5,1.1c0.9,0.8,1.3,1.8,1.4,3.2c0,1.4-0.4,2.5-1.2,3.3c-0.8,0.8-2,1.2-3.4,1.3
			c-1.4,0-2.6-0.3-3.5-1.1C148.6,111.6,148.2,110.5,148.1,109.1z M150.1,109c0,1,0.3,1.7,0.8,2.2c0.5,0.5,1.2,0.7,2,0.7
			c0.8,0,1.4-0.3,1.9-0.8c0.5-0.5,0.7-1.3,0.7-2.3c0-1-0.3-1.7-0.8-2.2c-0.5-0.5-1.2-0.7-2-0.7c-0.8,0-1.5,0.3-1.9,0.8
			C150.3,107.3,150.1,108,150.1,109z"/>
		<path id="XMLID_92_" class="st19" d="M158.7,108.9c0-0.9,0.1-1.6,0.4-2.2c0.2-0.4,0.5-0.8,0.9-1.2c0.4-0.4,0.8-0.6,1.2-0.8
			c0.6-0.2,1.3-0.4,2.1-0.4c1.4,0,2.6,0.3,3.5,1.1c0.9,0.8,1.3,1.8,1.4,3.2c0,1.4-0.4,2.5-1.2,3.3c-0.8,0.8-2,1.2-3.4,1.3
			c-1.4,0-2.6-0.3-3.5-1.1C159.2,111.3,158.7,110.2,158.7,108.9z M160.7,108.8c0,1,0.3,1.7,0.8,2.2s1.2,0.7,2,0.7s1.4-0.3,1.9-0.8
			c0.5-0.5,0.7-1.3,0.7-2.3c0-1-0.3-1.7-0.8-2.2c-0.5-0.5-1.2-0.7-2-0.7c-0.8,0-1.5,0.3-1.9,0.8C160.9,107,160.7,107.8,160.7,108.8z
			"/>
		<path id="XMLID_95_" class="st19" d="M169.5,104.2l3.6-0.1c0.8,0,1.4,0,1.9,0.1c0.6,0.1,1.1,0.4,1.5,0.8c0.4,0.4,0.7,0.8,1,1.4
			s0.3,1.2,0.4,2c0,0.7-0.1,1.3-0.3,1.8c-0.2,0.6-0.6,1.1-1,1.5c-0.3,0.3-0.8,0.5-1.4,0.7c-0.4,0.1-1,0.2-1.7,0.2l-3.7,0.1
			L169.5,104.2z M171.5,105.6l0.1,5.7l1.5,0c0.5,0,0.9-0.1,1.2-0.1c0.3-0.1,0.6-0.2,0.8-0.4c0.2-0.2,0.4-0.5,0.5-0.8
			s0.2-0.9,0.2-1.6c0-0.7-0.1-1.2-0.2-1.5s-0.3-0.6-0.6-0.8c-0.2-0.2-0.5-0.3-0.9-0.4c-0.3,0-0.8-0.1-1.6,0L171.5,105.6z"/>
	</g>
	<g id="XMLID_127_">
		<path id="XMLID_41_" class="st20" d="M148.7,150.5C148.7,150.5,148.7,150.5,148.7,150.5c0,0.1,0,0.1,0,0.1s0,0,0,0s0,0,0,0h-0.7
			v2.2c0,0,0,0,0,0s0,0,0,0s0,0-0.1,0s0,0-0.1,0c0,0-0.1,0-0.1,0s0,0-0.1,0s0,0,0,0s0,0,0,0v-2.2h-0.7c0,0,0,0,0,0s0,0,0,0s0,0,0,0
			s0,0,0-0.1s0,0,0-0.1s0,0,0,0s0,0,0,0s0,0,0,0h1.8c0,0,0,0,0,0s0,0,0,0S148.6,150.4,148.7,150.5
			C148.7,150.4,148.7,150.4,148.7,150.5z"/>
		<path id="XMLID_43_" class="st20" d="M150.5,152.8C150.5,152.8,150.5,152.8,150.5,152.8C150.5,152.8,150.5,152.8,150.5,152.8
			C150.5,152.9,150.4,152.9,150.5,152.8c-0.1,0.1-0.1,0.1-0.2,0.1c0,0-0.1,0-0.1,0s0,0,0,0s0,0,0,0s0,0,0,0v-1c0-0.1,0-0.2,0-0.2
			s0-0.1-0.1-0.2s-0.1-0.1-0.1-0.1s-0.1,0-0.2,0c-0.1,0-0.2,0-0.2,0.1s-0.2,0.1-0.3,0.3v1.2c0,0,0,0,0,0s0,0,0,0s0,0,0,0s0,0-0.1,0
			c0,0-0.1,0-0.1,0s0,0,0,0s0,0,0,0s0,0,0,0v-2.6c0,0,0,0,0,0s0,0,0,0s0,0,0,0s0,0,0.1,0c0,0,0.1,0,0.1,0s0,0,0,0s0,0,0,0s0,0,0,0
			v1.1c0.1-0.1,0.2-0.2,0.3-0.2s0.2-0.1,0.3-0.1c0.1,0,0.2,0,0.3,0.1s0.1,0.1,0.2,0.2s0.1,0.1,0.1,0.2s0,0.2,0,0.3V152.8z"/>
		<path id="XMLID_45_" class="st20" d="M152.6,151.9c0,0.1,0,0.1,0,0.1s-0.1,0-0.1,0h-1.2c0,0.1,0,0.2,0,0.3s0.1,0.1,0.1,0.2
			s0.1,0.1,0.2,0.1c0.1,0,0.2,0,0.3,0c0.1,0,0.2,0,0.2,0s0.1,0,0.2,0s0.1,0,0.1,0c0,0,0.1,0,0.1,0c0,0,0,0,0,0c0,0,0,0,0,0s0,0,0,0
			s0,0,0,0.1c0,0,0,0,0,0s0,0,0,0s0,0,0,0s0,0,0,0s0,0-0.1,0s-0.1,0-0.1,0s-0.1,0-0.2,0s-0.2,0-0.2,0c-0.1,0-0.3,0-0.4-0.1
			s-0.2-0.1-0.3-0.2s-0.1-0.2-0.2-0.3s-0.1-0.3-0.1-0.4c0-0.2,0-0.3,0.1-0.4s0.1-0.2,0.2-0.3s0.2-0.1,0.3-0.2s0.2-0.1,0.3-0.1
			c0.1,0,0.3,0,0.4,0.1s0.2,0.1,0.2,0.2s0.1,0.2,0.1,0.3S152.6,151.7,152.6,151.9L152.6,151.9z M152.3,151.8c0-0.2,0-0.3-0.1-0.4
			s-0.2-0.1-0.4-0.1c-0.1,0-0.2,0-0.2,0c-0.1,0-0.1,0.1-0.2,0.1c0,0-0.1,0.1-0.1,0.2s0,0.1,0,0.2H152.3z"/>
		<path id="XMLID_48_" class="st20" d="M155.7,152.1c0,0.1,0,0.2,0,0.2s0,0.1-0.1,0.2s-0.1,0.1-0.1,0.1s-0.1,0.1-0.2,0.1
			s-0.1,0-0.2,0.1s-0.2,0-0.3,0h-0.7c0,0-0.1,0-0.1,0s0-0.1,0-0.1v-2.3c0-0.1,0-0.1,0-0.1s0.1,0,0.1,0h0.6c0.2,0,0.3,0,0.4,0
			s0.2,0.1,0.2,0.1s0.1,0.1,0.1,0.2s0,0.2,0,0.3c0,0.1,0,0.1,0,0.2s0,0.1-0.1,0.2s-0.1,0.1-0.1,0.1s-0.1,0.1-0.1,0.1
			c0.1,0,0.1,0,0.2,0.1s0.1,0.1,0.2,0.1s0.1,0.1,0.1,0.2S155.7,152,155.7,152.1z M155.2,151c0-0.1,0-0.1,0-0.2s0-0.1-0.1-0.1
			c0,0-0.1-0.1-0.1-0.1c-0.1,0-0.1,0-0.2,0h-0.3v0.8h0.4c0.1,0,0.2,0,0.2,0c0.1,0,0.1-0.1,0.1-0.1s0.1-0.1,0.1-0.1
			S155.2,151.1,155.2,151z M155.3,152.2c0-0.1,0-0.1,0-0.2s-0.1-0.1-0.1-0.1c0,0-0.1-0.1-0.2-0.1c-0.1,0-0.2,0-0.3,0h-0.4v0.9h0.5
			c0.1,0,0.1,0,0.2,0c0.1,0,0.1,0,0.2-0.1c0,0,0.1-0.1,0.1-0.1S155.3,152.2,155.3,152.2z"/>
		<path id="XMLID_52_" class="st20" d="M156.5,150.5c0,0.1,0,0.1,0,0.2s-0.1,0-0.2,0c-0.1,0-0.1,0-0.2,0s0-0.1,0-0.2
			c0-0.1,0-0.1,0-0.2s0.1,0,0.2,0c0.1,0,0.1,0,0.2,0S156.5,150.4,156.5,150.5z M156.5,152.8C156.5,152.8,156.5,152.8,156.5,152.8
			C156.5,152.8,156.5,152.8,156.5,152.8C156.4,152.9,156.4,152.9,156.5,152.8c-0.1,0.1-0.1,0.1-0.2,0.1c0,0-0.1,0-0.1,0s0,0,0,0
			s0,0,0,0s0,0,0,0v-1.8c0,0,0,0,0,0s0,0,0,0s0,0,0,0s0,0,0.1,0c0,0,0.1,0,0.1,0s0,0,0,0s0,0,0,0s0,0,0,0V152.8z"/>
		<path id="XMLID_55_" class="st20" d="M158.5,151.1C158.5,151.2,158.5,151.2,158.5,151.1c0,0.1,0,0.1-0.1,0.1h-0.3
			c0,0,0.1,0.1,0.1,0.2s0,0.1,0,0.2c0,0.1,0,0.2,0,0.3s-0.1,0.1-0.1,0.2s-0.1,0.1-0.2,0.1s-0.2,0-0.3,0c-0.1,0-0.1,0-0.2,0
			s-0.1,0-0.1-0.1c0,0,0,0.1-0.1,0.1s0,0.1,0,0.1c0,0,0,0.1,0.1,0.1s0.1,0,0.2,0l0.5,0c0.1,0,0.2,0,0.2,0s0.1,0.1,0.2,0.1
			s0.1,0.1,0.1,0.1s0,0.1,0,0.2c0,0.1,0,0.2-0.1,0.2s-0.1,0.1-0.2,0.2s-0.2,0.1-0.3,0.1s-0.2,0-0.4,0c-0.1,0-0.3,0-0.4,0
			s-0.2-0.1-0.2-0.1s-0.1-0.1-0.1-0.1s0-0.1,0-0.2c0,0,0-0.1,0-0.1s0-0.1,0-0.1s0-0.1,0.1-0.1s0.1-0.1,0.1-0.1
			c-0.1,0-0.1-0.1-0.1-0.1s0-0.1,0-0.2c0-0.1,0-0.2,0-0.2s0.1-0.1,0.1-0.2c0,0-0.1-0.1-0.1-0.2s0-0.1,0-0.2c0-0.1,0-0.2,0.1-0.3
			s0.1-0.1,0.1-0.2s0.1-0.1,0.2-0.1s0.2,0,0.3,0c0.1,0,0.1,0,0.1,0s0.1,0,0.1,0h0.5C158.5,151,158.5,151,158.5,151.1
			C158.5,151.1,158.5,151.1,158.5,151.1z M158.2,153c0-0.1,0-0.1-0.1-0.2s-0.1-0.1-0.3-0.1l-0.5,0c0,0-0.1,0.1-0.1,0.1
			s0,0.1-0.1,0.1s0,0.1,0,0.1s0,0.1,0,0.1c0,0.1,0,0.1,0.1,0.2s0.2,0.1,0.4,0.1c0.1,0,0.2,0,0.2,0s0.1,0,0.2-0.1s0.1-0.1,0.1-0.1
			S158.2,153,158.2,153z M158,151.6c0-0.1,0-0.2-0.1-0.3s-0.2-0.1-0.3-0.1c-0.1,0-0.1,0-0.2,0s-0.1,0-0.1,0.1s-0.1,0.1-0.1,0.1
			s0,0.1,0,0.1c0,0.1,0,0.2,0.1,0.3s0.2,0.1,0.3,0.1c0.1,0,0.1,0,0.2,0s0.1,0,0.1-0.1s0.1-0.1,0.1-0.1S158,151.6,158,151.6z"/>
		<path id="XMLID_59_" class="st20" d="M161.6,152.5C161.6,152.5,161.6,152.5,161.6,152.5C161.6,152.6,161.6,152.6,161.6,152.5
			c0,0.1,0,0.1,0,0.1s0,0,0,0s0,0-0.1,0.1s-0.1,0.1-0.2,0.1s-0.1,0-0.2,0.1s-0.2,0-0.3,0c-0.2,0-0.3,0-0.4-0.1s-0.2-0.1-0.3-0.2
			s-0.2-0.2-0.2-0.4s-0.1-0.3-0.1-0.5c0-0.2,0-0.4,0.1-0.6s0.1-0.3,0.2-0.4s0.2-0.2,0.4-0.3s0.3-0.1,0.5-0.1c0.1,0,0.1,0,0.2,0
			s0.1,0,0.2,0.1s0.1,0,0.2,0.1s0.1,0,0.1,0.1s0,0,0,0s0,0,0,0s0,0,0,0s0,0,0,0.1c0,0,0,0,0,0.1s0,0,0,0s0,0,0,0c0,0,0,0,0,0
			c0,0,0,0-0.1,0c0,0-0.1-0.1-0.1-0.1c-0.1,0-0.1-0.1-0.2-0.1c-0.1,0-0.2,0-0.3,0c-0.1,0-0.2,0-0.3,0.1c-0.1,0-0.2,0.1-0.2,0.2
			s-0.1,0.2-0.2,0.3s-0.1,0.3-0.1,0.4c0,0.2,0,0.3,0.1,0.4c0,0.1,0.1,0.2,0.1,0.3s0.1,0.1,0.2,0.2c0.1,0,0.2,0.1,0.3,0.1
			c0.1,0,0.2,0,0.3,0c0.1,0,0.1-0.1,0.2-0.1c0.1,0,0.1-0.1,0.1-0.1s0.1,0,0.1,0c0,0,0,0,0,0s0,0,0,0S161.6,152.4,161.6,152.5
			C161.6,152.4,161.6,152.5,161.6,152.5z"/>
		<path id="XMLID_61_" class="st20" d="M163.5,152.8C163.5,152.8,163.5,152.8,163.5,152.8C163.5,152.8,163.5,152.8,163.5,152.8
			C163.5,152.9,163.4,152.9,163.5,152.8c-0.1,0.1-0.1,0.1-0.2,0.1c0,0-0.1,0-0.1,0s0,0,0,0s0,0,0,0s0,0,0,0v-1c0-0.1,0-0.2,0-0.2
			s0-0.1-0.1-0.2s-0.1-0.1-0.1-0.1s-0.1,0-0.2,0c-0.1,0-0.2,0-0.2,0.1s-0.2,0.1-0.3,0.3v1.2c0,0,0,0,0,0s0,0,0,0s0,0,0,0s0,0-0.1,0
			c0,0-0.1,0-0.1,0s0,0,0,0s0,0,0,0s0,0,0,0v-2.6c0,0,0,0,0,0s0,0,0,0s0,0,0,0s0,0,0.1,0c0,0,0.1,0,0.1,0s0,0,0,0s0,0,0,0s0,0,0,0
			v1.1c0.1-0.1,0.2-0.2,0.3-0.2s0.2-0.1,0.3-0.1c0.1,0,0.2,0,0.3,0.1s0.1,0.1,0.2,0.2s0.1,0.1,0.1,0.2s0,0.2,0,0.3V152.8z"/>
		<path id="XMLID_64_" class="st20" d="M164.5,150.5c0,0.1,0,0.1,0,0.2s-0.1,0-0.2,0c-0.1,0-0.1,0-0.2,0s0-0.1,0-0.2
			c0-0.1,0-0.1,0-0.2s0.1,0,0.2,0c0.1,0,0.1,0,0.2,0S164.5,150.4,164.5,150.5z M164.4,152.8C164.4,152.8,164.4,152.8,164.4,152.8
			C164.4,152.8,164.4,152.8,164.4,152.8C164.4,152.9,164.4,152.9,164.4,152.8c-0.1,0.1-0.1,0.1-0.2,0.1c0,0-0.1,0-0.1,0s0,0,0,0
			s0,0,0,0s0,0,0,0v-1.8c0,0,0,0,0,0s0,0,0,0s0,0,0,0s0,0,0.1,0c0,0,0.1,0,0.1,0s0,0,0,0s0,0,0,0s0,0,0,0V152.8z"/>
		<path id="XMLID_67_" class="st20" d="M165.3,152.8C165.3,152.8,165.3,152.8,165.3,152.8C165.3,152.8,165.3,152.8,165.3,152.8
			C165.3,152.9,165.3,152.9,165.3,152.8c-0.1,0.1-0.1,0.1-0.2,0.1c0,0-0.1,0-0.1,0s0,0,0,0s0,0,0,0s0,0,0,0v-2.6c0,0,0,0,0,0
			s0,0,0,0s0,0,0,0s0,0,0.1,0c0,0,0.1,0,0.1,0s0,0,0,0s0,0,0,0s0,0,0,0V152.8z"/>
		<path id="XMLID_69_" class="st20" d="M166.3,152.8C166.3,152.8,166.2,152.8,166.3,152.8C166.2,152.8,166.2,152.8,166.3,152.8
			C166.2,152.9,166.2,152.9,166.3,152.8c-0.1,0.1-0.1,0.1-0.2,0.1c0,0-0.1,0-0.1,0s0,0,0,0s0,0,0,0s0,0,0,0v-2.6c0,0,0,0,0,0
			s0,0,0,0s0,0,0,0s0,0,0.1,0c0,0,0.1,0,0.1,0s0,0,0,0s0,0,0,0s0,0,0,0V152.8z"/>
		<path id="XMLID_71_" class="st20" d="M169.5,152.5C169.5,152.5,169.5,152.5,169.5,152.5C169.5,152.6,169.5,152.6,169.5,152.5
			c0,0.1,0,0.1,0,0.1s0,0,0,0s0,0-0.1,0.1s-0.1,0.1-0.2,0.1s-0.1,0-0.2,0.1s-0.2,0-0.3,0c-0.2,0-0.3,0-0.4-0.1s-0.2-0.1-0.3-0.2
			s-0.2-0.2-0.2-0.4s-0.1-0.3-0.1-0.5c0-0.2,0-0.4,0.1-0.6s0.1-0.3,0.2-0.4s0.2-0.2,0.4-0.3s0.3-0.1,0.5-0.1c0.1,0,0.1,0,0.2,0
			s0.1,0,0.2,0.1s0.1,0,0.2,0.1s0.1,0,0.1,0.1s0,0,0,0s0,0,0,0s0,0,0,0s0,0,0,0.1c0,0,0,0,0,0.1s0,0,0,0s0,0,0,0c0,0,0,0,0,0
			c0,0,0,0-0.1,0c0,0-0.1-0.1-0.1-0.1c-0.1,0-0.1-0.1-0.2-0.1c-0.1,0-0.2,0-0.3,0c-0.1,0-0.2,0-0.3,0.1c-0.1,0-0.2,0.1-0.2,0.2
			s-0.1,0.2-0.2,0.3s-0.1,0.3-0.1,0.4c0,0.2,0,0.3,0.1,0.4c0,0.1,0.1,0.2,0.1,0.3s0.1,0.1,0.2,0.2c0.1,0,0.2,0.1,0.3,0.1
			c0.1,0,0.2,0,0.3,0c0.1,0,0.1-0.1,0.2-0.1c0.1,0,0.1-0.1,0.1-0.1s0.1,0,0.1,0c0,0,0,0,0,0s0,0,0,0S169.5,152.4,169.5,152.5
			C169.5,152.4,169.5,152.5,169.5,152.5z"/>
		<path id="XMLID_73_" class="st20" d="M171.2,152.8C171.2,152.8,171.2,152.8,171.2,152.8C171.2,152.9,171.2,152.9,171.2,152.8
			c-0.1,0.1-0.1,0.1-0.1,0.1c0,0-0.1,0-0.1,0s0,0,0,0s0,0,0,0v-0.2c-0.1,0.1-0.2,0.1-0.3,0.2s-0.2,0.1-0.3,0.1c-0.1,0-0.2,0-0.3,0
			s-0.1-0.1-0.2-0.1s-0.1-0.1-0.1-0.2s0-0.1,0-0.2c0-0.1,0-0.2,0.1-0.3s0.1-0.1,0.2-0.2s0.2-0.1,0.3-0.1s0.2,0,0.4,0h0.2v-0.1
			c0-0.1,0-0.1,0-0.2s0-0.1-0.1-0.1s-0.1-0.1-0.1-0.1s-0.1,0-0.2,0c-0.1,0-0.2,0-0.2,0s-0.1,0-0.2,0.1s-0.1,0-0.1,0.1s-0.1,0-0.1,0
			c0,0,0,0,0,0s0,0,0,0s0,0,0,0s0,0,0-0.1c0,0,0-0.1,0-0.1s0,0,0-0.1s0,0,0.1-0.1s0.1,0,0.1-0.1s0.1,0,0.2,0s0.1,0,0.2,0
			c0.1,0,0.2,0,0.3,0s0.2,0.1,0.2,0.1s0.1,0.1,0.1,0.2s0,0.2,0,0.3V152.8z M170.9,152h-0.3c-0.1,0-0.2,0-0.2,0s-0.1,0-0.2,0.1
			s-0.1,0.1-0.1,0.1s0,0.1,0,0.1c0,0.1,0,0.2,0.1,0.2s0.1,0.1,0.2,0.1c0.1,0,0.2,0,0.2-0.1s0.1-0.1,0.2-0.2V152z"/>
		<path id="XMLID_76_" class="st20" d="M172.7,150.3C172.7,150.4,172.7,150.4,172.7,150.3C172.7,150.4,172.7,150.4,172.7,150.3
			c0,0.1,0,0.1,0,0.1s0,0,0,0c0,0,0,0,0,0s0,0,0,0s0,0-0.1,0s-0.1,0-0.1,0c0,0-0.1,0-0.1,0s-0.1,0-0.1,0.1s0,0.1,0,0.1s0,0.1,0,0.2
			v0.2h0.4c0,0,0,0,0,0s0,0,0,0s0,0,0,0s0,0,0,0.1c0,0,0,0.1,0,0.1s0,0,0,0h-0.4v1.5c0,0,0,0,0,0s0,0,0,0s0,0,0,0s0,0-0.1,0
			s-0.1,0-0.1,0s0,0,0,0s0,0,0,0s0,0,0,0v-1.5h-0.2c0,0,0,0,0,0s0-0.1,0-0.1c0,0,0,0,0-0.1s0,0,0,0s0,0,0,0s0,0,0,0h0.2v-0.2
			c0-0.1,0-0.2,0-0.3s0.1-0.2,0.1-0.2s0.1-0.1,0.2-0.1s0.2,0,0.3,0c0,0,0.1,0,0.1,0s0.1,0,0.1,0s0,0,0,0s0,0,0,0
			S172.7,150.2,172.7,150.3C172.7,150.3,172.7,150.3,172.7,150.3z"/>
		<path id="XMLID_78_" class="st20" d="M174.4,151.9c0,0.1,0,0.1,0,0.1s-0.1,0-0.1,0h-1.2c0,0.1,0,0.2,0,0.3s0.1,0.1,0.1,0.2
			s0.1,0.1,0.2,0.1c0.1,0,0.2,0,0.3,0c0.1,0,0.2,0,0.2,0s0.1,0,0.2,0s0.1,0,0.1,0c0,0,0.1,0,0.1,0c0,0,0,0,0,0c0,0,0,0,0,0s0,0,0,0
			s0,0,0,0.1c0,0,0,0,0,0s0,0,0,0s0,0,0,0s0,0,0,0s0,0-0.1,0s-0.1,0-0.1,0s-0.1,0-0.2,0s-0.2,0-0.2,0c-0.1,0-0.3,0-0.4-0.1
			s-0.2-0.1-0.3-0.2s-0.1-0.2-0.2-0.3s-0.1-0.3-0.1-0.4c0-0.2,0-0.3,0.1-0.4s0.1-0.2,0.2-0.3s0.2-0.1,0.3-0.2s0.2-0.1,0.3-0.1
			c0.1,0,0.3,0,0.4,0.1s0.2,0.1,0.2,0.2s0.1,0.2,0.1,0.3S174.4,151.7,174.4,151.9L174.4,151.9z M174.1,151.8c0-0.2,0-0.3-0.1-0.4
			s-0.2-0.1-0.4-0.1c-0.1,0-0.2,0-0.2,0c-0.1,0-0.1,0.1-0.2,0.1c0,0-0.1,0.1-0.1,0.2s0,0.1,0,0.2H174.1z"/>
	</g>
</g>
<g id="XMLID_40_">
</g>
<g id="XMLID_99_">
</g>
<g id="XMLID_100_">
</g>
<g id="XMLID_102_">
</g>
<g id="XMLID_103_">
</g>
<g id="XMLID_104_">
</g>
</svg>
