<?xml version="1.0" encoding="utf-8"?>
<!-- Generator: Adobe Illustrator 19.0.0, SVG Export Plug-In . SVG Version: 6.00 Build 0)  -->
<svg version="1.0" id="Layer_1" xmlns="http://www.w3.org/2000/svg" xmlns:xlink="http://www.w3.org/1999/xlink" x="0px" y="0px"
	 viewBox="0 0 400 400" style="enable-background:new 0 0 400 400;" xml:space="preserve">
<style type="text/css">
	.st0{fill:#FBD0B0;}
	.st1{fill:#BE8D62;}
	.st2{fill:#B18054;}
	.st3{fill:#F6F6F6;}
	.st4{fill:#CB9A6E;}
	.st5{fill:#CCAC8A;}
	.st6{fill:#6C77AF;}
	.st7{fill:#FDDDBF;}
	.st8{fill:#BF8E63;}
	.st9{fill:#469FA5;}
	.st10{stroke:#000000;stroke-width:0.2;stroke-miterlimit:10;}
	.st11{fill:#CB9A6F;}
	.st12{fill:#D9A782;}
	.st13{fill:#45291E;}
	.st14{fill:none;stroke:#000000;stroke-width:0.4;stroke-miterlimit:10;}
	.st15{fill:#E7E4DD;}
	.st16{fill:#98683A;}
	.st17{fill:#E3C4A5;}
	.st18{fill:#E4C5A6;}
	.st19{fill:#FDDFC1;}
	.st20{fill:#30878E;}
	.st21{fill:#1A242D;}
	.st22{fill:#626F81;}
	.st23{fill:#090E13;}
	.st24{fill:#515E98;}
	.st25{fill:#445060;}
	.st26{fill:#969FB3;}
	.st27{fill:#7A8598;}
	.st28{fill:#B6C0CA;}
	.st29{fill:#CAD2D8;}
	.st30{fill:#4F87C6;}
	.st31{fill:#ADB8C9;}
	.st32{fill:#A8B2C5;}
	.st33{fill:#A3ADC1;}
	.st34{fill:#7B859A;}
	.st35{fill:#28333F;}
	.st36{fill:#35414F;}
	.st37{fill:#5B6979;}
	.st38{fill:#43515E;}
	.st39{fill:#5A6777;}
	.st40{fill:#949EB1;}
	.st41{fill:#61697B;}
	.st42{fill:#767E92;}
	.st43{fill:#8892A5;}
	.st44{fill:#6A9CD4;}
	.st45{fill:#6BA0D6;}
	.st46{fill:#7C879A;}
	.st47{fill:#DFE8E7;}
	.st48{fill:#3C3C3B;}
	.st49{fill:#FFFFFF;}
	.st50{fill:#8A93A4;}
</style>
<g id="XMLID_58_">
	<path id="XMLID_59_" class="st0" d="M282.1,291.5c-0.1,3.8-0.3,7.9,1,10.1s19,18.5,21,19.4c2.1,0.9,4.4,0,6.8,0s4.6-1.8,6.5-1.6
		c1.9,0.2,0.8-2.2,0-4.3c-0.8-2.2-12.5-12.1-12.5-12.1l0.7-3.1l-8.8-12.9L282.1,291.5z"/>
	<path id="XMLID_60_" class="st0" d="M299.2,284.1c-0.1,3.1-0.2,6.4,0.7,8.2c0.9,1.8,13.9,15.1,15.4,15.8c1.5,0.7,3.2,0,5,0
		c1.8,0,3.4-1.4,4.7-1.3c1.4,0.2,0.6-1.8,0-3.5s-9.2-9.9-9.2-9.9l0.5-2.6l-6.5-10.5L299.2,284.1z"/>
	<path id="XMLID_23_" class="st1" d="M224.8,249.2l5.5,13.6l86.7-54.3c-0.2-3.3-1.5-4.9-3.6-5.7L224.8,249.2z"/>
	<path id="XMLID_24_" class="st2" d="M313.4,202.9c3.7,2,4.4,4.2,0,7l-83.3,48c-0.2-2.2-1.3-3.7-3.3-4.4l-40.9-18.8
		c4,6.5,6.6,13.4,7.2,20.8c0,0,35.3,16.3,36.5,15.6c1.2-0.8,87.9-50.5,87.9-50.5l-0.6-13.6L313.4,202.9z"/>
	<polygon id="XMLID_13_" class="st2" points="126.6,113.6 128.2,116.6 149.7,193.5 180.1,208 245.2,170 214.5,63.8 	"/>
	<polygon id="XMLID_44_" class="st3" points="208.3,138.5 219.9,122 231.5,122.6 232.9,127.6 211.8,140.6 	"/>
	<polygon id="XMLID_20_" class="st4" points="245.2,170 313.4,202.9 226.8,253.5 185.9,234.8 179.8,218.9 180.1,208 	"/>
	<path id="XMLID_22_" class="st5" d="M180.5,220.6l38.5,17.5c5,0.5,7.4-1.4,8.2-4.8l-1.3-3.3l-46-12.9l0,1.6L180.5,220.6z"/>
	<path id="XMLID_45_" class="st6" d="M234,171.6c25.3,6.4,52.6,22.9,61.6,37.8c0,0,4.6,10,10.3,37c5.7,27,9.3,41.7,9.3,41.7
		c-4.2,3.7-8.8,4.8-13.7,4.3c0,0-26-79.2-33.1-84.3c-7-5.1-52.6-20.9-52.6-20.9l9-18.2L234,171.6z"/>
	<path id="XMLID_15_" class="st5" d="M239.3,149.7l0.4,1.5l71.5,33.6c3.9-1.3,6.7-2.4,7.5-3.5l-1.5-2.9L241.2,148L239.3,149.7z"/>
	<path id="XMLID_21_" class="st7" d="M134.6,194.5l-2.1,2.4l84.9,39.1c3,1.4,9.4-1.8,8.5-5.9l-76.2-36.5l-8.4-2.7L134.6,194.5z"/>
	<polygon id="XMLID_12_" class="st8" points="124.5,109.4 126.6,113.6 214.5,66.4 213.3,62.2 	"/>
	<path id="XMLID_31_" class="st9" d="M201.1,85.7c0,0,8.8,10.2,11,15.3s8,13.7,10.4,15.9c2.5,2.2,7.4,6.3,7.4,6.3
		c-6.9,1.8-12.9,4.8-17.2,10l-3,4.8c-4.5,1.2-8.4,5-11.7,11.5l-0.8-1.5l-28.8,11.4l-11.8-69.1L201.1,85.7z"/>
	<path id="XMLID_40_" class="st9" d="M200.6,193.9c0,0,6.5-6.9,15.5-9c9-2.1,17.1-6,17.8-10.3s-0.1-9.2-3.8-14.4
		c-3.7-5.2-6.3-8.4-6.3-8.4l-18.4,7.6L186.8,170l6.6,23.9H200.6z"/>
	<path id="XMLID_7_" class="st10" d="M200,74c0,0-0.6,9.5,0.4,11.5c1,2,2.9,5.7,1.5,4.5s-2.9-3.4-2.9-3.4s-0.3,2.4,0.8,3.3
		c1,0.9,3.2,0.8,2.6,1.4c-0.7,0.5-6.3,1.6-7.7-0.4c-1.3-2-3.6-8.2-3.6-8.2l6.6-8.7H200z"/>
	<polygon id="XMLID_11_" class="st11" points="112.1,108.9 124.8,110.9 214.5,63.8 211.5,60.5 201.9,59.1 	"/>
	<path id="XMLID_6_" class="st0" d="M200.6,65.8c0,0,0.8,5.5-2.7,15.1c-3.4,9.6-6.9,13.4-10.1,13s-21.1-7.6-21.6-10.5
		c-0.5-2.9,2.6-21.6,8.3-22.6c5.7-0.9,21.2-3.5,21.2-3.5l3.8,2.6L200.6,65.8z"/>
	<path id="XMLID_8_" class="st12" d="M167.1,96.8c0,0,9.4,13.6,16,16.6c6.6,3,12.7,2.2,12.9-2.7c0.2-4.9-5.8-17.3-5.8-17.3
		l-25.9-14.9L167.1,96.8z"/>
	<path id="XMLID_2_" class="st10" d="M171.7,39.7c10.8,1.3,17.4,7.8,18.8,20.3c0,0,7.9,1.2,8.6,2.5c0.7,1.4,0,4.4,0,4.4l2.3,1
		C204.7,51.9,191.3,33.3,171.7,39.7z"/>
	<polygon id="XMLID_3_" class="st13" points="176.2,74.1 183.6,78.9 184,77.6 176.9,73.5 	"/>
	<path id="XMLID_4_" class="st14" d="M184,77.6c2.5-3.6,5.1-4.1,7.9-3.1c0.5-1.3,1.3-2,2.6-1.8c0.7-2.7,2.5-4.4,5.4-5.4
		c4.1,4-3.7,13.8-5.6,6.7c-0.6-0.7-1.2-0.2-1.8,0.8c0.1,6.3-7.3,9.6-8.9,3.5L184,77.6z"/>
	<path id="XMLID_10_" class="st15" d="M172.4,79.9c7.7,4.6,15.9,5.5,24.5,3.5l0.4,1.9c-9.4,1.1-17.8,0.2-25.1-3.3l-1.5-2.2
		L172.4,79.9z"/>
	<polygon id="XMLID_5_" class="st16" points="112.1,108.9 134.6,194.5 141.3,190.8 149.7,193.5 127.8,115.2 125.7,110.9 	"/>
	<polygon id="XMLID_14_" class="st7" points="238.4,140 318.2,177.6 318.2,179.3 311.7,182.9 239.3,149.7 236.8,141.2 	"/>
	<polygon id="XMLID_16_" class="st17" points="249.5,155.8 244.1,170.6 251.7,173.5 257.1,159.4 	"/>
	<polygon id="XMLID_17_" class="st5" points="260.4,160.9 254.6,175.2 251.7,173.5 257.1,159.4 	"/>
	<polygon id="XMLID_18_" class="st5" points="291.3,175.5 296.7,194.5 303.5,198.6 298.8,179 	"/>
	<polygon id="XMLID_19_" class="st17" points="305.9,182.3 309.2,200.9 303.5,198.6 298.8,179 	"/>
	<path id="XMLID_25_" class="st18" d="M195.3,267.4l17.2,7.4l14.7,51.1l2.7,2.3l-22.5-95.4L199,229l9.1,33.8l-15-7.2
		C194.7,259.5,195.6,263.4,195.3,267.4z"/>
	<polygon id="XMLID_27_" class="st19" points="213.7,235.7 213.8,236.3 235.5,327.5 232.8,329.6 229.9,328.3 207.4,232.9 	"/>
	<polygon id="XMLID_26_" class="st5" points="305.9,227.3 318.6,273.7 322.4,275.4 309.8,225.1 	"/>
	<polygon id="XMLID_29_" class="st17" points="314.2,222.6 327,273.5 322.4,275.4 309.8,225.1 	"/>
	<path id="XMLID_34_" class="st20" d="M196.7,137.7c-10.7,10-20,10-27.2-3l-1.3,18c0,0,3,3.7,4.6,4s14.1-4.6,14.1-4.6
		C191.8,148.8,195.2,144.2,196.7,137.7z"/>
	<path id="XMLID_35_" class="st20" d="M200.7,92c0,0,2.5,11.3,5.4,14.2c2.9,2.8,11.1,7.9,11.8,9.7s0,12.1,0,12.1l8.5-3.7
		c0,0-5.5-5.4-7.6-9.1c-2.1-3.7-6.7-9.2-9.1-10.7S200.7,92,200.7,92z"/>
	<polygon id="XMLID_39_" class="st21" points="212.2,138.1 213.1,135.5 240,124.8 226.5,150.1 223.9,150.1 	"/>
	<polygon id="XMLID_36_" class="st22" points="240,124.8 260,108.7 260,110 240.8,125.4 227.5,150.1 226.5,150.1 	"/>
	<polygon id="XMLID_42_" class="st23" points="229.5,147.3 244.9,134.7 260,110 240.8,125.4 229,147.3 	"/>
	<path id="XMLID_56_" class="st24" d="M217.5,185.1l13.6-6.9l-1.6,8c0,0,22.2,9.6,25.3,10.4c3.1,0.8,20,8.1,21.4,10.6
		c1.4,2.5,6.2,9.1,9.4,19s20.8,65.1,20.8,65.1l-5.3,0.2c0,0-38.3-85.7-47.3-89.4c-9-3.7-40.3-14.6-40.3-14.6L217.5,185.1z"/>
	<path id="XMLID_9_" class="st15" d="M136,224.4c-11.5-42.8,51.8-63.8,25.4-109.2c-9.1-12.3-12.7-23.2-8.2-32.2l1.4,2.1
		c0,0-2.2,4.9,0.8,13.8s15.3,24.4,15.1,33.4s-0.4,21.9-6.1,29.5c-5.7,7.6-25,27.6-25.4,44.6c-0.4,17-0.2,18-0.2,18H136z"/>
	<path id="XMLID_1_" class="st10" d="M190.5,60.1c-7.7,15.2-28.4,12-12.6,37.2c-2.3,0.7-4.5,0.7-6.2-2.2l1.9,3.9
		c-16.9-4.6-26.7-13.3-18.8-32c-0.1-16.2,5.8-24.8,16.9-27.2C186.7,39.1,193.4,45.5,190.5,60.1z"/>
	<path id="XMLID_46_" class="st24" d="M188.6,206.1c-1.7,11.5,32.2,22.3,67.5,23l3.9-7.8c-29.9-1.3-53.9-7.2-66.8-21.9l-6.4-0.8
		L188.6,206.1z"/>
	<path id="XMLID_33_" class="st20" d="M174.6,175.9c2,10.9,5.6,20.6,11.3,28.7l1.8,3.4c2.9-6.4,7-11.3,12.9-14.1
		c-5.7-8.3-10.3-16.2-12-23.3c0,0,14.2-9.5,15.7-10.1s16.4-4.7,18.8-6s1.8-3.6,1.8-3.6l-34.3,10.5l-17.2,11.3L174.6,175.9z"/>
	<path id="XMLID_32_" class="st9" d="M156.6,90.3c0,0-16.5,18.1-14.4,31.2c2.2,13.1,12.7,53.8,14.4,54.8s4.4,5.9,9.6,3.9
		c5.2-2,37.3-20.8,37.3-20.8l-6.3-11.4l-28.8,11.4c0,0-0.6-17-2.3-26s-1.6-9-1.6-9L156.6,90.3z"/>
	<path id="XMLID_52_" class="st6" d="M257.1,227.6c0.9,16.5,9,39.2,23.7,67.6c7.9,3.1,15.2,3.8,20.7-2.9c0,0-10.4-32.7-11.3-36.6
		s-6.5-36.6-10.9-41.9c-4.4-5.3-11.6-12.1-19.3-14.3c-7.8-2.2-43.9-14.7-43.9-14.7c-9.6-1.5-15.8,4.6-22.9,14.5l5.9,12.4
		L257.1,227.6z"/>
	<path id="XMLID_38_" class="st0" d="M254.5,118.1c3.8,5.6,3.1,11-3.3,16.1c-3,0.2-5.4-0.6-7.1-2.3c0,0-0.1-2.5,0.6-3.3
		c0.7-0.8,0.9-1.4,0.9-2s-0.7-2.3,0.4-2.2c1,0.1,1.8-0.6,1-1c-0.8-0.5-1-2,0.6-2.1c1.6-0.2,4.8,0.4,4.8,0.4L254.5,118.1z"/>
	<g id="XMLID_76_">
		<path id="XMLID_62_" class="st25" d="M146.6,360.4v7.3l1.2,0.5c0,0,1.8,3.1,2.6,2.6c0.9-0.5,1.8-2.4,1.8-2.4l4.3-2.5v-3.8
			l28.5-16.4h2c0,0,0.7,1.1,1.1,1.5c0.5,0.4,2.1,0.2,2.1,0.2V341l-6-2.3L146.6,360.4z"/>
		<path id="XMLID_41_" class="st26" d="M194.9,249.7v82.8l-48.3,28v-83.8l-25.6-54l-3.4-2.6l45.8-27c3.3,0.2,5.9,0.9,6.6,3
			l24.8,52.5V249.7z"/>
		<polygon id="XMLID_75_" class="st27" points="171.3,248.8 175.9,257.5 176.4,273.1 160.6,264.1 158.6,267.3 143.5,234.5 
			159.9,225.3 		"/>
		<path id="XMLID_71_" class="st28" d="M152.9,249.5v5.6l5.7,12.2l0.5,13.7c5.5,0.4,9.9-0.9,12.2-5.2l-0.5-26.3H152.9z"/>
		<path id="XMLID_73_" class="st29" d="M163.3,252.2l0.4,28.6c2-0.3,3.7-1,5.3-2.2l-0.8-27.4l-4.1-0.2L163.3,252.2z"/>
		<path id="XMLID_70_" class="st30" d="M152,242.7c-0.3,6.4,0,5.9,0,5.9c3.1,4.3,17.3,5.7,19.9-0.6l0.2-4.7L152,242.7z"/>
		<path id="XMLID_28_" class="st31" d="M121,222.7l48.3-27.7c-1.8-1.3-3.8-2-6.1-1.8l-45.7,26.9L121,222.7z"/>
		<polygon id="XMLID_47_" class="st32" points="131.9,224.9 133.7,228.2 161.1,211.9 157.8,208.7 136.5,220.1 		"/>
		<polygon id="XMLID_30_" class="st33" points="116.9,219.9 114.5,222.7 118.1,224.9 142.8,278.4 142.8,361.6 146.6,360.4 
			146.6,276.7 121,222.7 		"/>
		<polygon id="XMLID_48_" class="st34" points="114.5,222.7 93,248.7 93,332.6 142.8,361.6 142.8,278.4 118.1,224.9 		"/>
		<polygon id="XMLID_49_" class="st35" points="93,332.6 93,340.3 142.2,368.6 142.8,361.6 		"/>
		<polygon id="XMLID_50_" class="st36" points="142.8,361.6 142.2,369 146.6,367.7 146.6,360.4 		"/>
		<polygon id="XMLID_53_" class="st37" points="194,333 194,336 194.9,337.8 190.2,341 184.5,338.4 194.3,333 		"/>
		<polygon id="XMLID_54_" class="st38" points="194.9,337.8 195.3,344 190.3,346.8 190.2,341 		"/>
		<polygon id="XMLID_55_" class="st39" points="146.4,360.6 151.1,363 156,359.9 154.8,355.7 		"/>
		<polygon id="XMLID_64_" class="st40" points="107.8,297.6 107.1,261.6 109,264.1 		"/>
		<polygon id="XMLID_57_" class="st41" points="107.1,260.6 126.3,272.1 126.3,274.8 109,264.1 		"/>
		<polygon id="XMLID_65_" class="st42" points="126.3,274.8 126.3,308.8 107.8,297.6 109,264.1 		"/>
		<polygon id="XMLID_66_" class="st43" points="143.5,234.5 169.9,219.9 184.5,249.3 177,253.4 165.1,233.5 147.3,242.2 		"/>
		<ellipse id="XMLID_67_" class="st44" cx="161.8" cy="237.2" rx="7.6" ry="3.8"/>
		<ellipse id="XMLID_68_" class="st45" cx="162.2" cy="242.5" rx="10.2" ry="4.9"/>
		<path id="XMLID_69_" class="st30" d="M155.2,239.1l0,3.7c0.4,3,12.7,3.3,13.2,0.4l0.2-4.6l-13.3,0.4V239.1z"/>
		<polygon id="XMLID_72_" class="st46" points="164.6,198.2 164.4,202.5 187.6,251.1 187.6,273.1 189.7,273.1 189.7,251.1 		"/>
		<polygon id="XMLID_74_" class="st47" points="136.4,243.2 141.3,240.3 152.6,264.7 147.8,267.5 		"/>
		<ellipse id="XMLID_77_" class="st48" cx="140.6" cy="245.2" rx="2.3" ry="2.1"/>
		<ellipse id="XMLID_79_" class="st49" cx="140.6" cy="245.2" rx="1.3" ry="1.2"/>
		<path id="XMLID_43_" class="st50" d="M130.4,221.9c0.4-0.4,28.3-16.4,28.3-16.4l3.4,6l-7.6-0.1l-22.5,13.6L130.4,221.9z"/>
	</g>
	<path id="XMLID_51_" class="st3" d="M231.5,122.6c8.8-7.2,18.3-12,28.5-14.2l-20,16.3l-7.1,2.8L231.5,122.6z"/>
	<path id="XMLID_37_" class="st0" d="M209.8,138.1c0,0,2.3-0.4,2.9,0.5c0.6,0.9,1.4,1.1,2.6,0.3s4-2,4.9-1.7
		c0.9,0.3,1.7,3.3,1.5,3.8c-0.1,0.5,2,0,2.1,1.3c0.1,1.3-0.5,4.2-0.3,6.1c0.1,1.9,0.8,2.6,0.1,3.5c-0.7,0.8-8.7,3.2-12.3,4
		s-8.2,3.2-8.2,3.2l-5.2-9.4C200.9,143.6,204.8,139.8,209.8,138.1z"/>
</g>
<g id="XMLID_61_">
</g>
<g id="XMLID_63_">
</g>
<g id="XMLID_78_">
</g>
<g id="XMLID_80_">
</g>
<g id="XMLID_81_">
</g>
<g id="XMLID_82_">
</g>
</svg>
